<?xml version="1.0" standalone="no"?>
<!DOCTYPE svg PUBLIC "-//W3C//DTD SVG 20010904//EN"
 "http://www.w3.org/TR/2001/REC-SVG-20010904/DTD/svg10.dtd">
<svg version="1.0" xmlns="http://www.w3.org/2000/svg"
 width="228.000000pt" height="221.000000pt" viewBox="0 0 228.000000 221.000000"
 preserveAspectRatio="xMidYMid meet">

<g transform="translate(0.000000,221.000000) scale(0.100000,-0.100000)"
fill="#000000" stroke="none">
<path d="M1020 2050 c-376 -47 -673 -309 -776 -685 -29 -106 -27 -351 4 -458
81 -281 275 -500 542 -610 187 -77 423 -85 617 -21 157 51 321 164 422 290 69
85 152 246 175 340 84 329 -11 665 -250 895 -85 81 -140 118 -246 169 -143 68
-333 100 -488 80z m-160 -536 c0 -9 -7 -14 -17 -12 -25 5 -28 28 -4 28 12 0
21 -6 21 -16z m154 -10 c9 -3 16 -13 16 -21 0 -10 -6 -13 -16 -9 -9 3 -18 6
-20 6 -2 0 -4 7 -4 15 0 17 2 18 24 9z m-308 -25 c7 -12 -15 -31 -28 -23 -4 3
-8 12 -8 20 0 17 26 19 36 3z m314 -19 c90 -39 222 -131 208 -145 -3 -3 -25 5
-47 19 -70 45 -137 66 -206 66 -80 0 -138 -24 -187 -78 -58 -64 -71 -103 -72
-214 l-1 -98 -147 0 -146 0 14 61 c38 164 160 324 299 391 55 27 67 29 145 25
60 -2 101 -10 140 -27z m10 -85 c0 -17 -2 -18 -24 -9 -23 9 -20 24 4 24 11 0
20 -7 20 -15z m-460 -15 c0 -16 -26 -29 -40 -20 -11 7 -11 11 -1 24 12 14 41
12 41 -4z m345 11 c3 -6 -4 -15 -15 -21 -17 -9 -20 -8 -20 10 0 20 24 28 35
11z m-97 -68 c-5 -25 -28 -28 -28 -4 0 12 6 21 16 21 9 0 14 -7 12 -17z m222
-38 c40 -21 56 -72 36 -118 -8 -19 -22 -40 -33 -45 -17 -10 -15 -14 22 -51
l39 -41 -49 0 c-42 0 -54 5 -82 32 l-33 32 0 -33 c0 -31 -1 -32 -37 -29 l-38
3 -3 133 -3 132 76 0 c48 0 87 -6 105 -15z m264 -6 c25 -20 26 -23 26 -135 l0
-114 -35 0 c-31 0 -35 3 -35 25 0 22 -4 25 -35 25 -31 0 -35 -3 -35 -25 0 -22
-4 -25 -35 -25 l-35 0 0 114 c0 112 1 115 26 135 19 15 41 21 79 21 38 0 60
-6 79 -21z m136 -114 l0 -135 -40 0 -40 0 0 135 0 135 40 0 40 0 0 -135z m100
40 l0 -95 50 0 50 0 0 -40 0 -41 -87 3 -88 3 -3 133 -3 132 41 0 40 0 0 -95z
m300 60 l0 -35 -55 0 c-42 0 -55 -3 -55 -15 0 -11 11 -15 38 -15 59 0 82 -22
82 -80 0 -69 -28 -90 -121 -90 l-69 0 0 35 0 34 62 3 c38 2 63 8 66 16 2 8 -9
12 -38 12 -54 0 -90 34 -90 85 0 25 8 44 25 60 21 22 33 25 90 25 l65 0 0 -35z
m-1074 -40 c4 -8 3 -23 0 -32 -6 -15 -8 -15 -22 -2 -8 9 -12 23 -8 32 8 21 23
22 30 2z m-309 -9 c7 -6 -11 -46 -21 -46 -23 0 -35 16 -29 38 4 18 10 21 27
16 11 -4 22 -7 23 -8z m303 -116 c4 0 10 -11 12 -25 8 -41 -34 -29 -45 13 -4
18 -2 22 10 18 8 -3 18 -6 23 -6z"/>
<path d="M940 1180 c0 -25 4 -30 24 -30 13 0 29 7 36 15 19 23 4 45 -30 45
-27 0 -30 -3 -30 -30z"/>
<path d="M1190 1176 c0 -35 1 -36 36 -36 34 0 35 1 32 33 -3 28 -7 32 -35 35
-32 3 -33 2 -33 -32z"/>
</g>
</svg>
